<svg width="40" height="53" viewBox="0 0 40 53" fill="none" xmlns="http://www.w3.org/2000/svg">
<path d="M22.6689 0C22.6802 0.0650224 22.703 0.195067 22.7162 0.262002C26.4612 0.18168 30.2308 1.35782 33.2367 3.62404C34.6505 4.75429 35.9753 6.03179 36.9665 7.56173C38.9072 10.3443 39.9666 13.7312 39.9837 17.1315C39.978 18.7398 40.0823 20.3635 39.8264 21.9585C39.635 22.8401 39.5042 23.7389 39.1839 24.5861C38.5395 26.6286 37.5047 28.5525 36.1326 30.1895C34.8154 31.7271 33.2784 33.0926 31.4988 34.0622C29.3685 35.2766 26.9597 35.9918 24.5186 36.1486C23.4345 36.2538 22.341 36.1792 21.2531 36.206C19.2575 36.2098 17.2637 36.2309 15.268 36.2156C15.2661 33.521 15.2471 30.8264 15.2377 28.1318C15.1713 27.187 15.1448 26.2385 15.1998 25.2937C17.04 25.2975 18.8822 25.2765 20.7225 25.2803C21.8463 25.244 22.974 25.3377 24.0922 25.1943C25.8889 24.9896 27.5339 23.8843 28.4588 22.3256C29.1562 21.226 29.3837 19.893 29.3477 18.606C29.3382 17.4509 29.3609 16.248 28.8966 15.1674C28.1025 12.9873 25.9704 11.3311 23.6544 11.2393C22.8565 11.1418 22.0529 11.2106 21.2512 11.1877C20.6125 11.159 19.9795 11.2661 19.3408 11.2451C17.9099 11.2202 16.4753 11.289 15.0444 11.2183C15.0273 8.18326 15.0368 5.15207 15.0159 2.11705C14.9666 1.5242 14.9344 0.923701 15.0178 0.332762C17.5688 0.250528 20.1236 0.275389 22.6765 0.26009C22.6746 0.195067 22.6708 0.0650224 22.6689 0Z" fill="#EDEDED"/>
<path d="M0.0398112 0.416908C0.460552 0.355711 0.885084 0.384397 1.30962 0.382485C4.54288 0.353799 7.77614 0.338499 11.0094 0.355711C11.0246 3.99123 11.0511 7.62675 11.0397 11.2623C7.38383 11.2795 3.73172 11.2986 0.0777158 11.291C0.0454968 8.83922 0.0815062 6.38941 0.0625539 3.93768C-0.0113601 2.76728 -0.0208362 1.58731 0.0398112 0.416908Z" fill="#EDEDED"/>
<path d="M0.227439 25.3817C1.61096 25.3607 3.00016 25.4276 4.37989 25.3167C6.65417 25.3243 8.93034 25.3033 11.2046 25.3224C11.2463 27.363 11.2463 29.4073 11.2539 31.4498C11.3657 33.1595 11.2804 34.875 11.3126 36.5885C11.3392 37.124 11.2103 37.6575 11.2691 38.193C11.3562 38.8719 11.2141 39.5508 11.2444 40.2336C11.2596 41.6794 10.9848 43.106 10.6758 44.5136C10.3991 45.5941 10.0504 46.667 9.48943 47.6328C8.48496 49.264 7.00668 50.6123 5.24033 51.3524C3.70898 51.9835 2.03928 52.2666 0.388534 52.2436C0.27861 51.1325 0.337362 50.0156 0.322201 48.9007C0.31462 47.7571 0.303248 46.6134 0.31462 45.4717C0.289982 45.313 0.460552 45.225 0.593219 45.2307C1.49156 45.1466 2.42212 44.8158 3.00395 44.089C3.44933 43.4579 3.77152 42.7255 3.84544 41.949C4.09561 40.0825 3.98379 38.1911 4.00653 36.3131C2.77463 36.3074 1.54273 36.3169 0.310829 36.3112C0.288086 34.5479 0.303248 32.7866 0.286191 31.0233C0.263448 29.9887 0.31841 28.9522 0.219858 27.9195C0.246391 27.0723 0.164896 26.2251 0.227439 25.3817Z" fill="#EDEDED"/>
</svg>
