<svg width="19" height="28" viewBox="0 0 19 28" fill="none" xmlns="http://www.w3.org/2000/svg">
<path d="M5.42857 24.8572H13.5714V27.5714H5.42857V24.8572ZM16.1581 16.3234C17.556 14.6867 19 12.9944 19 9.92859C19 4.69137 14.7372 0.428589 9.5 0.428589C4.26279 0.428589 0 4.69137 0 9.92859C0 13.0297 1.44807 14.7166 2.85136 16.3479C3.33721 16.9152 3.84071 17.5028 4.3225 18.1787C4.51793 18.4582 4.83821 19.5304 5.12457 20.7857H4.07143V23.5H14.9286V20.7857H13.8781C14.1672 19.5277 14.4889 18.4528 14.6829 18.1732C15.1606 17.4906 15.6682 16.8975 16.1581 16.3234ZM12.4613 16.6125C11.8723 17.4499 11.381 19.4286 11.096 20.7857H7.90536C7.62171 19.4259 7.12907 17.4431 6.53329 16.6057C6.02403 15.9059 5.48239 15.2302 4.91014 14.5809C3.58829 13.0419 2.71429 12.024 2.71429 9.92859C2.71429 6.18695 5.75836 3.14287 9.5 3.14287C13.2416 3.14287 16.2857 6.18695 16.2857 9.92859C16.2857 11.9928 15.4131 13.0147 14.0939 14.5605C13.5877 15.1549 13.0136 15.8267 12.4613 16.6125Z" fill="url(#paint0_linear_1508_353)"/>
<defs>
<linearGradient id="paint0_linear_1508_353" x1="9.5" y1="0.428589" x2="9.5" y2="27.5714" gradientUnits="userSpaceOnUse">
<stop stop-color="#4D49FF"/>
<stop offset="1" stop-color="#49B3FF"/>
</linearGradient>
</defs>
</svg>
