<svg width="25" height="24" viewBox="0 0 25 24" fill="none" xmlns="http://www.w3.org/2000/svg">
<path d="M10.7635 20.5265C13.0407 20.526 15.2523 19.7637 17.0461 18.3609L22.6859 24.0007L24.5 22.1866L18.8602 16.5468C20.2637 14.7528 21.0265 12.5407 21.0271 10.2629C21.0271 4.60387 16.4226 -0.000610352 10.7635 -0.000610352C5.10448 -0.000610352 0.5 4.60387 0.5 10.2629C0.5 15.922 5.10448 20.5265 10.7635 20.5265ZM10.7635 2.56527C15.0088 2.56527 18.4612 6.01767 18.4612 10.2629C18.4612 14.5082 15.0088 17.9606 10.7635 17.9606C6.51828 17.9606 3.06588 14.5082 3.06588 10.2629C3.06588 6.01767 6.51828 2.56527 10.7635 2.56527Z" fill="url(#paint0_linear_1508_348)"/>
<path d="M12.5751 8.44885C13.0613 8.93637 13.3294 9.5804 13.3294 10.2629H15.8953C15.8964 9.58865 15.7639 8.92083 15.5054 8.29808C15.2469 7.67533 14.8675 7.11 14.3891 6.63477C12.4468 4.69496 9.07903 4.69496 7.13794 6.63477L8.94946 8.45141C9.92449 7.47894 11.6051 7.48151 12.5751 8.44885Z" fill="url(#paint1_linear_1508_348)"/>
<defs>
<linearGradient id="paint0_linear_1508_348" x1="12.5" y1="-0.000610352" x2="12.5" y2="24.0007" gradientUnits="userSpaceOnUse">
<stop stop-color="#4D49FF"/>
<stop offset="1" stop-color="#49B3FF"/>
</linearGradient>
<linearGradient id="paint1_linear_1508_348" x1="12.5" y1="-0.000610352" x2="12.5" y2="24.0007" gradientUnits="userSpaceOnUse">
<stop stop-color="#4D49FF"/>
<stop offset="1" stop-color="#49B3FF"/>
</linearGradient>
</defs>
</svg>
