<svg width="25" height="25" viewBox="0 0 25 25" fill="none" xmlns="http://www.w3.org/2000/svg">
<path d="M6.57382 24.3512C8.40155 24.3512 9.98206 23.6996 11.2662 22.4155C12.6139 21.0678 13.3147 18.9904 13.1275 17.0223L23.405 6.74475C24.1066 6.0417 24.5005 5.0889 24.5 4.09567C24.4996 3.10243 24.1049 2.14999 23.4026 1.44757C21.9889 0.0314727 19.5215 0.0314727 18.1078 1.44757L7.44628 12.1091C5.15052 12.312 2.87755 13.9345 2.87755 16.8123C2.87755 17.1759 2.90275 17.5179 2.92796 17.8444C3.02396 19.0816 3.05877 19.5461 1.16263 20.4941C0.976388 20.5876 0.81765 20.7278 0.702006 20.9012C0.586362 21.0745 0.517789 21.2749 0.503021 21.4828C0.488254 21.6906 0.527799 21.8987 0.617774 22.0866C0.707749 22.2746 0.845059 22.4359 1.01622 22.5547C1.12423 22.6267 3.64801 24.3512 6.57382 24.3512C6.57262 24.3512 6.57262 24.3512 6.57382 24.3512ZM19.8048 3.1433C20.0608 2.89765 20.4021 2.76068 20.7569 2.76113C21.1118 2.76158 21.4527 2.8994 21.7081 3.1457C21.8329 3.27051 21.932 3.41869 21.9995 3.58177C22.0671 3.74485 22.1018 3.91964 22.1018 4.09616C22.1018 4.27269 22.0671 4.44748 21.9995 4.61056C21.932 4.77364 21.8329 4.92182 21.7081 5.04663L12.501 14.2537L10.5977 12.3504L19.8048 3.1433ZM5.32213 17.6583C5.30053 17.3895 5.27773 17.1087 5.27773 16.8111C5.27773 14.9569 7.01185 14.4673 7.92992 14.4673C8.35715 14.4673 8.76878 14.5549 9.0868 14.7145C10.2209 15.2846 10.5989 16.2662 10.7153 16.9899C10.9277 18.298 10.4549 19.8317 9.56803 20.7186C8.73877 21.5478 7.7595 21.951 6.57382 21.951C5.67375 21.951 4.79769 21.7158 4.08364 21.4386C5.38213 20.2709 5.42894 19.0516 5.32213 17.6583Z" fill="url(#paint0_linear_1508_333)"/>
<defs>
<linearGradient id="paint0_linear_1508_333" x1="12.5" y1="0.385498" x2="12.5" y2="24.3512" gradientUnits="userSpaceOnUse">
<stop stop-color="#4D49FF"/>
<stop offset="1" stop-color="#49B3FF"/>
</linearGradient>
</defs>
</svg>
