<svg width="24" height="26" viewBox="0 0 24 26" fill="none" xmlns="http://www.w3.org/2000/svg">
<path d="M12 0C10.6815 0 9.39253 0.390993 8.2962 1.12354C7.19987 1.85608 6.34539 2.89727 5.8408 4.11544C5.33622 5.33362 5.2042 6.67406 5.46143 7.96727C5.71867 9.26047 6.3536 10.4484 7.28595 11.3807C8.21831 12.3131 9.40619 12.948 10.6994 13.2052C11.9926 13.4625 13.333 13.3304 14.5512 12.8259C15.7694 12.3213 16.8106 11.4668 17.5431 10.3705C18.2757 9.27414 18.6667 7.98521 18.6667 6.66667C18.6667 4.89856 17.9643 3.20286 16.714 1.95262C15.4638 0.702379 13.7681 0 12 0ZM12 10.6667C11.2089 10.6667 10.4355 10.4321 9.77772 9.99254C9.11992 9.55302 8.60723 8.9283 8.30448 8.1974C8.00173 7.4665 7.92252 6.66223 8.07686 5.88631C8.2312 5.11038 8.61216 4.39765 9.17157 3.83824C9.73098 3.27883 10.4437 2.89787 11.2196 2.74353C11.9956 2.58918 12.7998 2.6684 13.5307 2.97115C14.2616 3.2739 14.8864 3.78659 15.3259 4.44439C15.7654 5.10218 16 5.87554 16 6.66667C16 7.72753 15.5786 8.74495 14.8284 9.49509C14.0783 10.2452 13.0609 10.6667 12 10.6667ZM24 25.3333V24C24 21.5246 23.0167 19.1507 21.2663 17.4003C19.516 15.65 17.142 14.6667 14.6667 14.6667H9.33333C6.85798 14.6667 4.48401 15.65 2.73367 17.4003C0.98333 19.1507 0 21.5246 0 24V25.3333H2.66667V24C2.66667 22.2319 3.36905 20.5362 4.61929 19.286C5.86953 18.0357 7.56522 17.3333 9.33333 17.3333H14.6667C16.4348 17.3333 18.1305 18.0357 19.3807 19.286C20.631 20.5362 21.3333 22.2319 21.3333 24V25.3333H24Z" fill="url(#paint0_linear_1520_1224)"/>
<defs>
<linearGradient id="paint0_linear_1520_1224" x1="12" y1="0" x2="12" y2="25.3333" gradientUnits="userSpaceOnUse">
<stop stop-color="#4D49FF"/>
<stop offset="1" stop-color="#49B3FF"/>
</linearGradient>
</defs>
</svg>
