<svg width="25" height="23" viewBox="0 0 25 23" fill="none" xmlns="http://www.w3.org/2000/svg">
<path d="M22.1 0.568359H6.5C5.1764 0.568359 4.1 1.64476 4.1 2.96836V5.36836H2.9C1.5764 5.36836 0.5 6.44476 0.5 7.76836V19.7684C0.5 21.092 1.5764 22.1684 2.9 22.1684H10.1C11.4236 22.1684 12.5 21.092 12.5 19.7684H22.1C23.4236 19.7684 24.5 18.692 24.5 17.3684V2.96836C24.5 1.64476 23.4236 0.568359 22.1 0.568359ZM10.0964 19.7684H2.9V7.76836H10.1L10.0964 19.7684ZM22.0964 17.3684H12.5V7.76836C12.5 6.44476 11.4236 5.36836 10.1 5.36836H6.5V2.96836H22.1L22.0964 17.3684Z" fill="url(#paint0_linear_1508_338)"/>
<defs>
<linearGradient id="paint0_linear_1508_338" x1="12.5" y1="0.568359" x2="12.5" y2="22.1684" gradientUnits="userSpaceOnUse">
<stop stop-color="#4D49FF"/>
<stop offset="1" stop-color="#49B3FF"/>
</linearGradient>
</defs>
</svg>
